<svg width="217" height="110" viewBox="0 0 217 110" fill="none" xmlns="http://www.w3.org/2000/svg">
<path d="M36.7566 33.5484C47.238 40.8602 49.9661 52.9032 49.9661 65.0896H36.0387C36.0387 48.0287 29.8648 41.2903 14.0709 41.2903V65.0896H0V3.58423H14.0709V27.3835C32.5928 27.3835 34.6029 10.6093 34.6029 3.58423H48.5303C48.5303 14.9104 45.3715 25.8064 36.7566 33.5484Z" fill="#EE3B72"/>
<path d="M62.8446 14.0502C58.9679 14.0502 55.8091 10.8961 55.8091 7.02509C55.8091 3.15412 58.9679 0 62.8446 0C66.7213 0 69.88 3.15412 69.88 7.02509C69.88 10.8961 66.7213 14.0502 62.8446 14.0502ZM55.6655 65.0896V16.4875H69.7365V65.0896H55.6655Z" fill="#EE3B72"/>
<path d="M100.272 16.4875C113.912 16.4875 124.968 27.5269 124.968 41.1469C124.968 54.767 113.912 65.8064 100.272 65.8064C96.3953 65.8064 92.8058 64.9462 89.647 63.3692V80H75.5761V41.1469C75.5761 27.5269 86.6319 16.4875 100.272 16.4875ZM100.272 51.7563C106.159 51.7563 110.897 47.0251 110.897 41.1469C110.897 35.2688 106.159 30.5376 100.272 30.5376C94.3852 30.5376 89.647 35.2688 89.647 41.1469C89.647 47.0251 94.3852 51.7563 100.272 51.7563Z" fill="#EE3B72"/>
<path d="M155.377 16.4875C169.017 16.4875 180.073 27.5269 180.073 41.1469C180.073 54.767 169.017 65.8064 155.377 65.8064C151.5 65.8064 147.911 64.9462 144.752 63.3692V80H130.681V41.1469C130.681 27.5269 141.737 16.4875 155.377 16.4875ZM155.377 51.7563C161.264 51.7563 166.002 47.0251 166.002 41.1469C166.002 35.2688 161.264 30.5376 155.377 30.5376C149.49 30.5376 144.752 35.2688 144.752 41.1469C144.752 47.0251 149.49 51.7563 155.377 51.7563Z" fill="#EE3B72"/>
<path d="M192.965 14.0502C189.088 14.0502 185.929 10.8961 185.929 7.02509C185.929 3.15412 189.088 0 192.965 0C196.841 0 200 3.15412 200 7.02509C200 10.8961 196.841 14.0502 192.965 14.0502ZM185.786 65.0896V16.4875H199.856V65.0896H185.786Z" fill="#EE3B72"/>
<path d="M15.248 91.848L12.016 103H10.384L7.792 94.024L5.104 103L3.488 103.016L0.368 91.848H1.92L4.352 101.304L7.04 91.848H8.672L11.232 101.272L13.68 91.848H15.248ZM24.8414 98.28C24.8414 98.5573 24.8254 98.8507 24.7934 99.16H17.7854C17.8387 100.024 18.132 100.701 18.6654 101.192C19.2094 101.672 19.8654 101.912 20.6334 101.912C21.2627 101.912 21.7854 101.768 22.2014 101.48C22.628 101.181 22.9267 100.787 23.0974 100.296H24.6654C24.4307 101.139 23.9614 101.827 23.2574 102.36C22.5534 102.883 21.6787 103.144 20.6334 103.144C19.8014 103.144 19.0547 102.957 18.3934 102.584C17.7427 102.211 17.2307 101.683 16.8574 101C16.484 100.307 16.2974 99.5067 16.2974 98.6C16.2974 97.6933 16.4787 96.8987 16.8414 96.216C17.204 95.5333 17.7107 95.0107 18.3614 94.648C19.0227 94.2747 19.78 94.088 20.6334 94.088C21.4654 94.088 22.2014 94.2693 22.8414 94.632C23.4814 94.9947 23.972 95.496 24.3134 96.136C24.6654 96.7653 24.8414 97.48 24.8414 98.28ZM23.3374 97.976C23.3374 97.4213 23.2147 96.9467 22.9694 96.552C22.724 96.1467 22.388 95.8427 21.9614 95.64C21.5454 95.4267 21.0814 95.32 20.5694 95.32C19.8334 95.32 19.204 95.5547 18.6814 96.024C18.1694 96.4933 17.876 97.144 17.8014 97.976H23.3374ZM35.9249 103L32.4849 99.128V103H31.0289V91.16H32.4849V98.12L35.8609 94.232H37.8929L33.7649 98.6L37.9089 103H35.9249ZM47.2633 98.28C47.2633 98.5573 47.2473 98.8507 47.2153 99.16H40.2073C40.2606 100.024 40.5539 100.701 41.0873 101.192C41.6313 101.672 42.2873 101.912 43.0553 101.912C43.6846 101.912 44.2073 101.768 44.6233 101.48C45.0499 101.181 45.3486 100.787 45.5193 100.296H47.0873C46.8526 101.139 46.3833 101.827 45.6793 102.36C44.9753 102.883 44.1006 103.144 43.0553 103.144C42.2233 103.144 41.4766 102.957 40.8153 102.584C40.1646 102.211 39.6526 101.683 39.2793 101C38.9059 100.307 38.7193 99.5067 38.7193 98.6C38.7193 97.6933 38.9006 96.8987 39.2633 96.216C39.6259 95.5333 40.1326 95.0107 40.7833 94.648C41.4446 94.2747 42.2019 94.088 43.0553 94.088C43.8873 94.088 44.6233 94.2693 45.2633 94.632C45.9033 94.9947 46.3939 95.496 46.7353 96.136C47.0873 96.7653 47.2633 97.48 47.2633 98.28ZM45.7593 97.976C45.7593 97.4213 45.6366 96.9467 45.3913 96.552C45.1459 96.1467 44.8099 95.8427 44.3833 95.64C43.9673 95.4267 43.5033 95.32 42.9913 95.32C42.2553 95.32 41.6259 95.5547 41.1033 96.024C40.5913 96.4933 40.2979 97.144 40.2233 97.976H45.7593ZM57.1851 98.28C57.1851 98.5573 57.1691 98.8507 57.1371 99.16H50.1291C50.1825 100.024 50.4758 100.701 51.0091 101.192C51.5531 101.672 52.2091 101.912 52.9771 101.912C53.6065 101.912 54.1291 101.768 54.5451 101.48C54.9718 101.181 55.2705 100.787 55.4411 100.296H57.0091C56.7745 101.139 56.3051 101.827 55.6011 102.36C54.8971 102.883 54.0225 103.144 52.9771 103.144C52.1451 103.144 51.3985 102.957 50.7371 102.584C50.0865 102.211 49.5745 101.683 49.2011 101C48.8278 100.307 48.6411 99.5067 48.6411 98.6C48.6411 97.6933 48.8225 96.8987 49.1851 96.216C49.5478 95.5333 50.0545 95.0107 50.7051 94.648C51.3665 94.2747 52.1238 94.088 52.9771 94.088C53.8091 94.088 54.5451 94.2693 55.1851 94.632C55.8251 94.9947 56.3158 95.496 56.6571 96.136C57.0091 96.7653 57.1851 97.48 57.1851 98.28ZM55.6811 97.976C55.6811 97.4213 55.5585 96.9467 55.3131 96.552C55.0678 96.1467 54.7318 95.8427 54.3051 95.64C53.8891 95.4267 53.4251 95.32 52.9131 95.32C52.1771 95.32 51.5478 95.5547 51.0251 96.024C50.5131 96.4933 50.2198 97.144 50.1451 97.976H55.6811ZM60.563 95.848C60.851 95.3467 61.2777 94.9307 61.843 94.6C62.419 94.2587 63.0857 94.088 63.843 94.088C64.6217 94.088 65.3257 94.2747 65.955 94.648C66.595 95.0213 67.0963 95.5493 67.459 96.232C67.8217 96.904 68.003 97.688 68.003 98.584C68.003 99.4693 67.8217 100.259 67.459 100.952C67.0963 101.645 66.595 102.184 65.955 102.568C65.3257 102.952 64.6217 103.144 63.843 103.144C63.0963 103.144 62.435 102.979 61.859 102.648C61.2937 102.307 60.8617 101.885 60.563 101.384V107.16H59.107V94.232H60.563V95.848ZM66.515 98.584C66.515 97.9227 66.3817 97.3467 66.115 96.856C65.8483 96.3653 65.4857 95.992 65.027 95.736C64.579 95.48 64.083 95.352 63.539 95.352C63.0057 95.352 62.5097 95.4853 62.051 95.752C61.603 96.008 61.2403 96.3867 60.963 96.888C60.6963 97.3787 60.563 97.9493 60.563 98.6C60.563 99.2613 60.6963 99.8427 60.963 100.344C61.2403 100.835 61.603 101.213 62.051 101.48C62.5097 101.736 63.0057 101.864 63.539 101.864C64.083 101.864 64.579 101.736 65.027 101.48C65.4857 101.213 65.8483 100.835 66.115 100.344C66.3817 99.8427 66.515 99.256 66.515 98.584ZM81.7371 94.232L76.4571 107.128H74.9531L76.6811 102.904L73.1451 94.232H74.7611L77.5131 101.336L80.2331 94.232H81.7371ZM87.0248 103.144C86.2034 103.144 85.4568 102.957 84.7848 102.584C84.1234 102.211 83.6008 101.683 83.2168 101C82.8434 100.307 82.6568 99.5067 82.6568 98.6C82.6568 97.704 82.8488 96.9147 83.2328 96.232C83.6274 95.5387 84.1608 95.0107 84.8328 94.648C85.5048 94.2747 86.2568 94.088 87.0888 94.088C87.9208 94.088 88.6728 94.2747 89.3448 94.648C90.0168 95.0107 90.5448 95.5333 90.9288 96.216C91.3234 96.8987 91.5208 97.6933 91.5208 98.6C91.5208 99.5067 91.3181 100.307 90.9128 101C90.5181 101.683 89.9794 102.211 89.2968 102.584C88.6141 102.957 87.8568 103.144 87.0248 103.144ZM87.0248 101.864C87.5474 101.864 88.0381 101.741 88.4968 101.496C88.9554 101.251 89.3234 100.883 89.6008 100.392C89.8888 99.9013 90.0328 99.304 90.0328 98.6C90.0328 97.896 89.8941 97.2987 89.6168 96.808C89.3394 96.3173 88.9768 95.9547 88.5288 95.72C88.0808 95.4747 87.5954 95.352 87.0728 95.352C86.5394 95.352 86.0488 95.4747 85.6008 95.72C85.1634 95.9547 84.8114 96.3173 84.5448 96.808C84.2781 97.2987 84.1448 97.896 84.1448 98.6C84.1448 99.3147 84.2728 99.9173 84.5288 100.408C84.7954 100.899 85.1474 101.267 85.5848 101.512C86.0221 101.747 86.5021 101.864 87.0248 101.864ZM101.211 94.232V103H99.7551V101.704C99.4778 102.152 99.0885 102.504 98.5871 102.76C98.0965 103.005 97.5525 103.128 96.9551 103.128C96.2725 103.128 95.6591 102.989 95.1151 102.712C94.5711 102.424 94.1391 101.997 93.8191 101.432C93.5098 100.867 93.3551 100.179 93.3551 99.368V94.232H94.7951V99.176C94.7951 100.04 95.0138 100.707 95.4511 101.176C95.8885 101.635 96.4858 101.864 97.2431 101.864C98.0218 101.864 98.6351 101.624 99.0831 101.144C99.5311 100.664 99.7551 99.9653 99.7551 99.048V94.232H101.211ZM105.126 95.656C105.382 95.1547 105.744 94.7653 106.214 94.488C106.694 94.2107 107.275 94.072 107.958 94.072V95.576H107.574C105.942 95.576 105.126 96.4613 105.126 98.232V103H103.67V94.232H105.126V95.656ZM113.36 98.6C113.36 97.6933 113.541 96.904 113.904 96.232C114.267 95.5493 114.768 95.0213 115.408 94.648C116.059 94.2747 116.8 94.088 117.632 94.088C118.709 94.088 119.595 94.3493 120.288 94.872C120.992 95.3947 121.456 96.12 121.68 97.048H120.112C119.963 96.5147 119.669 96.0933 119.232 95.784C118.805 95.4747 118.272 95.32 117.632 95.32C116.8 95.32 116.128 95.608 115.616 96.184C115.104 96.7493 114.848 97.5547 114.848 98.6C114.848 99.656 115.104 100.472 115.616 101.048C116.128 101.624 116.8 101.912 117.632 101.912C118.272 101.912 118.805 101.763 119.232 101.464C119.659 101.165 119.952 100.739 120.112 100.184H121.68C121.445 101.08 120.976 101.8 120.272 102.344C119.568 102.877 118.688 103.144 117.632 103.144C116.8 103.144 116.059 102.957 115.408 102.584C114.768 102.211 114.267 101.683 113.904 101C113.541 100.317 113.36 99.5173 113.36 98.6ZM127.975 94.072C128.636 94.072 129.233 94.216 129.767 94.504C130.3 94.7813 130.716 95.2027 131.015 95.768C131.324 96.3333 131.479 97.0213 131.479 97.832V103H130.039V98.04C130.039 97.1653 129.82 96.4987 129.383 96.04C128.945 95.5707 128.348 95.336 127.591 95.336C126.823 95.336 126.209 95.576 125.751 96.056C125.303 96.536 125.079 97.2347 125.079 98.152V103H123.623V91.16H125.079V95.48C125.367 95.032 125.761 94.6853 126.263 94.44C126.775 94.1947 127.345 94.072 127.975 94.072ZM134.609 92.808C134.332 92.808 134.097 92.712 133.905 92.52C133.713 92.328 133.617 92.0933 133.617 91.816C133.617 91.5387 133.713 91.304 133.905 91.112C134.097 90.92 134.332 90.824 134.609 90.824C134.876 90.824 135.1 90.92 135.281 91.112C135.473 91.304 135.569 91.5387 135.569 91.816C135.569 92.0933 135.473 92.328 135.281 92.52C135.1 92.712 134.876 92.808 134.609 92.808ZM135.313 94.232V103H133.857V94.232H135.313ZM139.251 91.16V103H137.795V91.16H139.251ZM141.188 98.584C141.188 97.688 141.369 96.904 141.732 96.232C142.095 95.5493 142.591 95.0213 143.22 94.648C143.86 94.2747 144.575 94.088 145.364 94.088C146.047 94.088 146.681 94.248 147.268 94.568C147.855 94.8773 148.303 95.288 148.612 95.8V91.16H150.084V103H148.612V101.352C148.324 101.875 147.897 102.307 147.332 102.648C146.767 102.979 146.105 103.144 145.348 103.144C144.569 103.144 143.86 102.952 143.22 102.568C142.591 102.184 142.095 101.645 141.732 100.952C141.369 100.259 141.188 99.4693 141.188 98.584ZM148.612 98.6C148.612 97.9387 148.479 97.3627 148.212 96.872C147.945 96.3813 147.583 96.008 147.124 95.752C146.676 95.4853 146.18 95.352 145.636 95.352C145.092 95.352 144.596 95.48 144.148 95.736C143.7 95.992 143.343 96.3653 143.076 96.856C142.809 97.3467 142.676 97.9227 142.676 98.584C142.676 99.256 142.809 99.8427 143.076 100.344C143.343 100.835 143.7 101.213 144.148 101.48C144.596 101.736 145.092 101.864 145.636 101.864C146.18 101.864 146.676 101.736 147.124 101.48C147.583 101.213 147.945 100.835 148.212 100.344C148.479 99.8427 148.612 99.2613 148.612 98.6ZM154.001 95.656C154.257 95.1547 154.619 94.7653 155.089 94.488C155.569 94.2107 156.15 94.072 156.833 94.072V95.576H156.449C154.817 95.576 154.001 96.4613 154.001 98.232V103H152.545V94.232H154.001V95.656ZM166.513 98.28C166.513 98.5573 166.497 98.8507 166.465 99.16H159.457C159.511 100.024 159.804 100.701 160.337 101.192C160.881 101.672 161.537 101.912 162.305 101.912C162.935 101.912 163.457 101.768 163.873 101.48C164.3 101.181 164.599 100.787 164.769 100.296H166.337C166.103 101.139 165.633 101.827 164.929 102.36C164.225 102.883 163.351 103.144 162.305 103.144C161.473 103.144 160.727 102.957 160.065 102.584C159.415 102.211 158.903 101.683 158.529 101C158.156 100.307 157.969 99.5067 157.969 98.6C157.969 97.6933 158.151 96.8987 158.513 96.216C158.876 95.5333 159.383 95.0107 160.033 94.648C160.695 94.2747 161.452 94.088 162.305 94.088C163.137 94.088 163.873 94.2693 164.513 94.632C165.153 94.9947 165.644 95.496 165.985 96.136C166.337 96.7653 166.513 97.48 166.513 98.28ZM165.009 97.976C165.009 97.4213 164.887 96.9467 164.641 96.552C164.396 96.1467 164.06 95.8427 163.633 95.64C163.217 95.4267 162.753 95.32 162.241 95.32C161.505 95.32 160.876 95.5547 160.353 96.024C159.841 96.4933 159.548 97.144 159.473 97.976H165.009ZM172.707 94.072C173.774 94.072 174.638 94.3973 175.299 95.048C175.96 95.688 176.291 96.616 176.291 97.832V103H174.851V98.04C174.851 97.1653 174.632 96.4987 174.195 96.04C173.758 95.5707 173.16 95.336 172.403 95.336C171.635 95.336 171.022 95.576 170.563 96.056C170.115 96.536 169.891 97.2347 169.891 98.152V103H168.435V94.232H169.891V95.48C170.179 95.032 170.568 94.6853 171.059 94.44C171.56 94.1947 172.11 94.072 172.707 94.072ZM186.039 103.144C185.367 103.144 184.764 103.032 184.231 102.808C183.698 102.573 183.276 102.253 182.967 101.848C182.658 101.432 182.487 100.957 182.455 100.424H183.959C184.002 100.861 184.204 101.219 184.567 101.496C184.94 101.773 185.426 101.912 186.023 101.912C186.578 101.912 187.015 101.789 187.335 101.544C187.655 101.299 187.815 100.989 187.815 100.616C187.815 100.232 187.644 99.9493 187.303 99.768C186.962 99.576 186.434 99.3893 185.719 99.208C185.068 99.0373 184.535 98.8667 184.119 98.696C183.714 98.5147 183.362 98.2533 183.063 97.912C182.775 97.56 182.631 97.1013 182.631 96.536C182.631 96.088 182.764 95.6773 183.031 95.304C183.298 94.9307 183.676 94.6373 184.167 94.424C184.658 94.2 185.218 94.088 185.847 94.088C186.818 94.088 187.602 94.3333 188.199 94.824C188.796 95.3147 189.116 95.9867 189.159 96.84H187.703C187.671 96.3813 187.484 96.0133 187.143 95.736C186.812 95.4587 186.364 95.32 185.799 95.32C185.276 95.32 184.86 95.432 184.551 95.656C184.242 95.88 184.087 96.1733 184.087 96.536C184.087 96.824 184.178 97.064 184.359 97.256C184.551 97.4373 184.786 97.5867 185.063 97.704C185.351 97.8107 185.746 97.9333 186.247 98.072C186.876 98.2427 187.388 98.4133 187.783 98.584C188.178 98.744 188.514 98.9893 188.791 99.32C189.079 99.6507 189.228 100.083 189.239 100.616C189.239 101.096 189.106 101.528 188.839 101.912C188.572 102.296 188.194 102.6 187.703 102.824C187.223 103.037 186.668 103.144 186.039 103.144ZM190.751 98.584C190.751 97.688 190.932 96.904 191.295 96.232C191.657 95.5493 192.153 95.0213 192.783 94.648C193.423 94.2747 194.132 94.088 194.911 94.088C195.679 94.088 196.345 94.2533 196.911 94.584C197.476 94.9147 197.897 95.3307 198.175 95.832V94.232H199.647V103H198.175V101.368C197.887 101.88 197.455 102.307 196.879 102.648C196.313 102.979 195.652 103.144 194.895 103.144C194.116 103.144 193.412 102.952 192.783 102.568C192.153 102.184 191.657 101.645 191.295 100.952C190.932 100.259 190.751 99.4693 190.751 98.584ZM198.175 98.6C198.175 97.9387 198.041 97.3627 197.775 96.872C197.508 96.3813 197.145 96.008 196.687 95.752C196.239 95.4853 195.743 95.352 195.199 95.352C194.655 95.352 194.159 95.48 193.711 95.736C193.263 95.992 192.905 96.3653 192.639 96.856C192.372 97.3467 192.239 97.9227 192.239 98.584C192.239 99.256 192.372 99.8427 192.639 100.344C192.905 100.835 193.263 101.213 193.711 101.48C194.159 101.736 194.655 101.864 195.199 101.864C195.743 101.864 196.239 101.736 196.687 101.48C197.145 101.213 197.508 100.835 197.775 100.344C198.041 99.8427 198.175 99.2613 198.175 98.6ZM205.675 95.432H203.835V103H202.379V95.432H201.243V94.232H202.379V93.608C202.379 92.6267 202.63 91.912 203.131 91.464C203.643 91.0053 204.459 90.776 205.579 90.776V91.992C204.939 91.992 204.486 92.12 204.219 92.376C203.963 92.6213 203.835 93.032 203.835 93.608V94.232H205.675V95.432ZM215.373 98.28C215.373 98.5573 215.357 98.8507 215.325 99.16H208.317C208.37 100.024 208.663 100.701 209.197 101.192C209.741 101.672 210.397 101.912 211.165 101.912C211.794 101.912 212.317 101.768 212.733 101.48C213.159 101.181 213.458 100.787 213.629 100.296H215.197C214.962 101.139 214.493 101.827 213.789 102.36C213.085 102.883 212.21 103.144 211.165 103.144C210.333 103.144 209.586 102.957 208.925 102.584C208.274 102.211 207.762 101.683 207.389 101C207.015 100.307 206.829 99.5067 206.829 98.6C206.829 97.6933 207.01 96.8987 207.373 96.216C207.735 95.5333 208.242 95.0107 208.893 94.648C209.554 94.2747 210.311 94.088 211.165 94.088C211.997 94.088 212.733 94.2693 213.373 94.632C214.013 94.9947 214.503 95.496 214.845 96.136C215.197 96.7653 215.373 97.48 215.373 98.28ZM213.869 97.976C213.869 97.4213 213.746 96.9467 213.501 96.552C213.255 96.1467 212.919 95.8427 212.493 95.64C212.077 95.4267 211.613 95.32 211.101 95.32C210.365 95.32 209.735 95.5547 209.213 96.024C208.701 96.4933 208.407 97.144 208.333 97.976H213.869Z" fill="#252525"/>
</svg>
