<?xml version="1.0" encoding="UTF-8"?>
<svg id="Layer_2" data-name="Layer 2" xmlns="http://www.w3.org/2000/svg" viewBox="0 0 1111.78 1028.7">
  <defs>
    <style>
      .cls-1 {
        fill: #fff;
      }

      .cls-2 {
        stroke: #fff;
        stroke-width: 23px;
      }

      .cls-2, .cls-3, .cls-4 {
        fill: none;
        stroke-miterlimit: 10;
      }

      .cls-5 {
        fill: #603;
      }

      .cls-6 {
        fill: #f6a3b5;
      }

      .cls-7 {
        fill: #921d52;
      }

      .cls-8 {
        fill: #f35c87;
      }

      .cls-9 {
        fill: #fbdee3;
      }

      .cls-10 {
        fill: #7c1148;
      }

      .cls-11 {
        fill: #ea3c70;
      }

      .cls-12 {
        fill: #f7a5b5;
      }

      .cls-3 {
        stroke: #7c1148;
        stroke-width: 15px;
      }

      .cls-3, .cls-4 {
        stroke-linecap: round;
      }

      .cls-4 {
        stroke: #fbdee3;
        stroke-width: 50px;
      }
    </style>
  </defs>
  <g id="Cape_Inner" data-name="Cape Inner">
    <path class="cls-5" d="M65.76,678.86s18.89,10.63,22.98,27.27c4.09,16.64,5.11,40.64,17.36,52.9,12.26,12.26,54.13,10.72,72,38.3,17.87,27.57,37.28,57.7,37.28,57.7,0,0,84.35-12.34,164.47-83.53,80.12-71.19,96.46-216.21,96.46-216.21l-165.45-20.94s-162.89,109.79-245.11,144.51Z"/>
  </g>
  <g id="Cape_Outer" data-name="Cape Outer">
    <path class="cls-7" d="M303.71,529.76s-82.72,63.32-163.91,88.34c-81.19,25.02-131.74,22.47-138.89,38.3-7.15,15.83,28.09,64.85,102.64,34.21,74.55-30.64,203.74-144.51,203.74-144.51l-3.57-16.34Z"/>
  </g>
  <g id="Right_Ear" data-name="Right Ear">
    <path class="cls-9" d="M848.55,6.27c-38.3-27.57-148.6,41.36-200.68,98.81,0,0,189.19,140.17,214.47,176.94,13.79-67.4,24.51-245.87-13.79-275.74Z"/>
    <path class="cls-6" d="M811.9,56.77c-23.94-17.24-92.9,25.86-125.46,61.77,0,0,118.28,87.63,134.08,110.62,8.62-42.14,15.32-153.72-8.62-172.39Z"/>
  </g>
  <g id="Left_Ear" data-name="Left Ear">
    <path class="cls-9" d="M261.21,6.27c38.3-27.57,148.6,41.36,200.68,98.81,0,0-189.19,140.17-214.47,176.94-13.79-67.4-24.51-245.87,13.79-275.74Z"/>
    <path class="cls-6" d="M289.86,56.77c23.94-17.24,92.9,25.86,125.46,61.77,0,0-118.28,87.63-134.08,110.62-8.62-42.14-15.32-153.72,8.62-172.39Z"/>
  </g>
  <g id="Arm">
    <path class="cls-9" d="M444.09,638.49c-.49.3-.98.6-1.47.9-27.69,16.89-70.21,37.38-110.74,51.01-7.37,2.48-14.67,4.73-21.8,6.69-45.45,12.5-84.14,13.25-89.99-14-6.03-28.06,22.67-54.11,60.67-77.99,6.46-4.06,13.21-8.07,20.1-12.01,28.6-16.37,59.68-31.63,84.24-45.73,3.46-1.99,6.79-3.95,9.97-5.89l49.02,97.02Z"/>
    <path class="cls-8" d="M444.09,638.49c-.49.3-.98.6-1.47.9-27.69,16.89-70.21,37.38-110.74,51.01l-31.02-97.31c28.6-16.37,59.68-31.63,84.24-45.73,3.46-1.99,6.79-3.95,9.97-5.89l49.02,97.02Z"/>
  </g>
  <g id="Tail">
    <path class="cls-4" d="M65.28,879.34s176.68,12.77,328.85-121.02"/>
  </g>
  <g id="Right_Leg" data-name="Right Leg">
    <path class="cls-9" d="M728.64,790.79c-2.81,24.82-16.11,71.21-34.21,116.47-2.83,7.07-5.77,14.11-8.8,21.04-23.51,53.6-52.7,100.4-77.49,100.4-21.2,0-30.58-40.22-34.27-87.59-.51-6.52-.91-13.17-1.22-19.88-2.91-63.05,2.3-130.44,2.3-130.44h153.69Z"/>
    <path class="cls-8" d="M728.64,790.79c-2.81,24.82-16.11,71.21-34.21,116.47l-121.78,13.97c-2.91-63.05,2.3-130.44,2.3-130.44h153.69Z"/>
  </g>
  <g id="Left_Leg" data-name="Left Leg">
    <path class="cls-9" d="M517.47,921.23c-2.55,55.41-11.37,107.47-35.49,107.47-27.99,0-61.6-59.68-86.29-121.44-18.1-45.26-31.41-91.65-34.21-116.47h153.69s5.21,67.39,2.3,130.44Z"/>
    <path class="cls-8" d="M517.47,921.23l-121.78-13.97c-18.1-45.26-31.41-91.65-34.21-116.47h153.69s5.21,67.39,2.3,130.44Z"/>
  </g>
  <g id="Body">
    <path class="cls-8" d="M751.6,772.41c-.23,2.75-.52,5.45-.88,8.1-1.88,14.16-5.58,26.98-11.66,38.4-.6,1.14-1.23,2.25-1.88,3.36-25.4,43.25-87.34,65.75-218.8,65.75-111.27,0-161.66-31.63-178.49-79.37-.24-.69-.49-1.39-.71-2.09-3.92-11.89-5.83-24.75-6.12-38.35-.02-.84-.03-1.68-.04-2.52-.43-59.51,29.05-132.62,54.64-200.14h337.77c13.27,85.14,30.57,154.54,26.17,206.86Z"/>
    <path class="cls-7" d="M750.72,780.51c-1.88,14.16-5.58,26.98-11.66,38.4-46.55,4.4-92.95,6.06-136.47,6.06-55.45,0-106.25-2.69-146.8-5.86-50.16-3.92-90.82-8.95-116.61-12.55-3.92-11.89-5.83-24.75-6.12-38.35,14.85,2.19,38.59,5.42,68.74,8.64,84.13,8.98,218.23,17.86,348.91,3.66Z"/>
    <circle class="cls-9" cx="548.06" cy="808.58" r="31.16"/>
    <path class="cls-7" d="M594.88,698.97c-3.58-11.88-14.57-20.18-27.04-20.18h-29.48c-12.43,0-23.51,8.3-27.04,20.18-4.13.1-7.41,3.43-7.41,7.51v1.09c0,4.13,3.28,7.46,7.41,7.51,3.53,11.93,14.57,20.18,27.04,20.18h29.48c12.48,0,23.51-8.25,27.04-20.18,4.08-.05,7.41-3.38,7.41-7.51v-1.09c0-4.08-3.33-7.41-7.41-7.51ZM567.84,728.95h-29.48c-12.08,0-21.92-9.84-21.92-21.92s9.84-21.92,21.92-21.92h29.48c12.08,0,21.92,9.79,21.92,21.92s-9.84,21.92-21.92,21.92Z"/>
    <path class="cls-9" d="M567.84,685.1h-29.48c-12.08,0-21.92,9.79-21.92,21.92s9.84,21.92,21.92,21.92h29.48c12.08,0,21.92-9.84,21.92-21.92s-9.79-21.92-21.92-21.92ZM567.84,722.93h-29.48c-8.75,0-15.91-7.16-15.91-15.91s7.16-15.91,15.91-15.91h29.48c8.75,0,15.91,7.16,15.91,15.91s-7.11,15.91-15.91,15.91Z"/>
    <path class="cls-7" d="M546.61,704.14v5.77c0,2.39-1.94,4.33-4.33,4.33s-4.33-1.94-4.33-4.33v-5.77c0-2.39,1.94-4.33,4.33-4.33s4.33,1.94,4.33,4.33Z"/>
    <path class="cls-7" d="M568.34,704.14v5.77c0,2.39-1.94,4.33-4.33,4.33s-4.33-1.94-4.33-4.33v-5.77c0-2.39,1.94-4.33,4.33-4.33s4.33,1.94,4.33,4.33Z"/>
    <path class="cls-12" d="M491.12,602.35s31.66,30.64,65.36,45.28c0,0,43.91-14.64,68.09-45.28h-133.45Z"/>
  </g>
  <g id="Cat_Head" data-name="Cat Head">
    <path class="cls-9" d="M915.12,389.34c0,12.52-1.08,24.48-3.19,35.89-2.02,11.02-4.99,21.52-8.85,31.52-6.38,16.58-15.2,31.76-26.19,45.59-59.13,74.56-180.79,109.63-321.26,109.63s-262.13-35.07-321.27-109.63c-10.98-13.83-19.8-29.01-26.18-45.59-3.86-10-6.84-20.51-8.85-31.53-2.11-11.41-3.19-23.37-3.19-35.88,0-6.42.28-12.88.85-19.36.05-.57.1-1.15.16-1.72,3.11-33.24,13.42-67.2,29.69-99.85,42.8-85.88,126.85-162.79,229.78-194.08,16.88-5.13,34.28-9.04,52.08-11.55,6.96-.99,13.99-1.77,21.07-2.31,8.54-.67,17.16-1.01,25.86-1.01s17.56.35,26.22,1.04c7.08.55,14.11,1.33,21.07,2.33,17.81,2.53,35.2,6.46,52.08,11.62,102.77,31.36,186.67,108.18,229.42,193.96,16.27,32.66,26.58,66.61,29.69,99.85.06.57.11,1.15.16,1.72.57,6.49.85,12.94.85,19.36Z"/>
    <g id="Cat_Marks" data-name="Cat Marks">
      <path class="cls-12" d="M581.67,60.5v83.25c0,14.32-11.72,26.04-26.04,26.04s-26.04-11.72-26.04-26.04V60.47c8.54-.67,17.16-1.01,25.86-1.01s17.56.35,26.22,1.04Z"/>
      <path class="cls-12" d="M654.82,74.45v44.02c0,14.32-11.72,26.04-26.04,26.04s-26.04-11.72-26.04-26.04v-55.64c17.81,2.53,35.2,6.46,52.08,11.62Z"/>
      <path class="cls-12" d="M508.52,62.78v55.69c0,14.32-11.72,26.04-26.04,26.04s-26.04-11.72-26.04-26.04v-44.14c16.88-5.13,34.28-9.04,52.08-11.55Z"/>
      <path class="cls-12" d="M307.96,454.91c0,10.3-6.16,20.11-16.26,24.2l-57.34,23.23c-10.98-13.83-19.8-29.01-26.18-45.59l63.97-25.91c13.27-5.38,28.53,1.08,33.91,14.36,1.29,3.18,1.9,6.47,1.9,9.71Z"/>
      <path class="cls-12" d="M276.18,376.46c0,10.31-6.15,20.12-16.25,24.21l-60.6,24.55c-2.11-11.41-3.19-23.37-3.19-35.88,0-6.42.28-12.88.85-19.36l43.38-17.58c13.27-5.38,28.54,1.08,33.92,14.36,1.28,3.17,1.89,6.46,1.89,9.7Z"/>
      <path class="cls-12" d="M903.08,456.75c-6.38,16.58-15.2,31.76-26.19,45.59l-57.34-23.23c-10.1-4.09-16.26-13.9-16.26-24.2,0-3.24.61-6.53,1.9-9.71,5.38-13.28,20.64-19.74,33.92-14.36l63.97,25.91Z"/>
      <path class="cls-12" d="M915.12,389.34c0,12.52-1.08,24.48-3.19,35.89l-60.6-24.56c-10.1-4.08-16.26-13.9-16.26-24.2,0-3.24.61-6.53,1.9-9.71,5.38-13.28,20.64-19.74,33.91-14.36l43.39,17.58c.57,6.49.85,12.94.85,19.36Z"/>
    </g>
    <path class="cls-8" d="M914.11,368.26c-71.2,13.11-143.46,68.02-191.43,68.02s-103.35-66.7-166.79-67.07h-.52c-63.44.37-117.73,67.07-166.8,67.07s-120.22-54.91-191.42-68.02c3.11-33.24,13.42-67.2,29.69-99.85,90.5-11.31,102.54-50.6,152.37-50.6,58.07,0,110.03,65.53,176.16,65.87h.52c66.13-.34,118.09-65.87,176.16-65.87,49.83,0,61.87,39.29,152.37,50.6,16.27,32.66,26.58,66.61,29.69,99.85Z"/>
    <path class="cls-10" d="M591.65,372.11c0,10.34-12.51,32.68-27.93,32.68s-27.93-22.34-27.93-32.68,12.51-18.72,27.93-18.72,27.93,8.38,27.93,18.72Z"/>
    <path class="cls-9" d="M492.55,419.09s65.4,27.91,71.17-14.3"/>
    <g>
      <path class="cls-3" d="M498.42,423.44s32.65,48,65.29-19.91"/>
      <path class="cls-3" d="M629.01,423.44s-32.65,48-65.29-19.91"/>
    </g>
  </g>
  <g id="Left_Eye" data-name="Left Eye">
    <circle class="cls-10" cx="405.49" cy="325.53" r="43.52"/>
  </g>
  <g id="Right_Eye" data-name="Right Eye">
    <circle class="cls-10" cx="721.83" cy="325.53" r="43.52"/>
  </g>
  <g id="Shield">
    <path class="cls-12" d="M1111.78,514.27s-4.26,163.07-9.62,232.77c-8.43,98.04-47.66,159.32-199.24,221.36V450.95l208.86,63.32Z"/>
    <path class="cls-8" d="M902.92,450.95v517.45c-151.57-62.04-190.8-123.32-199.23-221.36-5.36-69.7-9.62-232.77-9.62-232.77l208.85-63.32Z"/>
    <path class="cls-8" d="M902.92,450.95v41.8l168.01,50.93c-1.51,50.33-4.81,150.21-8.64,200.1-3.93,45.46-14.89,75.87-36.64,101.65-23.98,28.42-63.2,53.89-122.73,79.59v43.38c151.58-62.04,190.81-123.32,199.24-221.36,5.36-69.7,9.62-232.77,9.62-232.77l-208.86-63.32Z"/>
    <path class="cls-11" d="M902.92,450.95l-208.85,63.32s4.26,163.07,9.62,232.77c8.43,98.04,47.66,159.32,199.23,221.36v-43.38c-59.53-25.7-98.74-51.17-122.72-79.59-21.75-25.78-32.71-56.19-36.64-101.65-3.83-49.89-7.13-149.77-8.64-200.1l168-50.93v-41.8Z"/>
    <rect class="cls-1" x="808.87" y="663.11" width="188.43" height="147.57" rx="14.04" ry="14.04"/>
    <ellipse class="cls-2" cx="903.08" cy="663.11" rx="63.99" ry="64.85"/>
    <path class="cls-12" d="M912.72,736.96l8.5,46.16h-18.3v-92.06h.17c13.22,0,23.96,10.72,23.96,23.96,0,9.81-5.9,18.24-14.33,21.94Z"/>
    <path class="cls-12" d="M912.72,736.96l8.5,46.16h-18.3v-92.06h.17c13.22,0,23.96,10.72,23.96,23.96,0,9.81-5.9,18.24-14.33,21.94Z"/>
    <path class="cls-8" d="M902.92,691.06v92.06h-17.97l8.49-46.16c-8.43-3.71-14.33-12.14-14.33-21.94,0-13.18,10.65-23.87,23.81-23.96Z"/>
    <path class="cls-8" d="M902.92,691.06v92.06h-17.97l8.49-46.16c-8.43-3.71-14.33-12.14-14.33-21.94,0-13.18,10.65-23.87,23.81-23.96Z"/>
  </g>
</svg>