<svg width="200" height="80" viewBox="0 0 200 80" fill="none" xmlns="http://www.w3.org/2000/svg">
<path d="M36.7566 33.5484C47.238 40.8602 49.9661 52.9032 49.9661 65.0896H36.0387C36.0387 48.0287 29.8648 41.2903 14.0709 41.2903V65.0896H0V3.58423H14.0709V27.3835C32.5928 27.3835 34.6029 10.6093 34.6029 3.58423H48.5303C48.5303 14.9104 45.3715 25.8064 36.7566 33.5484Z" fill="#EE3B72"/>
<path d="M62.8446 14.0502C58.9679 14.0502 55.8091 10.8961 55.8091 7.02509C55.8091 3.15412 58.9679 0 62.8446 0C66.7213 0 69.88 3.15412 69.88 7.02509C69.88 10.8961 66.7213 14.0502 62.8446 14.0502ZM55.6655 65.0896V16.4875H69.7365V65.0896H55.6655Z" fill="#EE3B72"/>
<path d="M100.272 16.4875C113.912 16.4875 124.968 27.5269 124.968 41.1469C124.968 54.767 113.912 65.8064 100.272 65.8064C96.3953 65.8064 92.8058 64.9462 89.647 63.3692V80H75.5761V41.1469C75.5761 27.5269 86.6319 16.4875 100.272 16.4875ZM100.272 51.7563C106.159 51.7563 110.897 47.0251 110.897 41.1469C110.897 35.2688 106.159 30.5376 100.272 30.5376C94.3852 30.5376 89.647 35.2688 89.647 41.1469C89.647 47.0251 94.3852 51.7563 100.272 51.7563Z" fill="#EE3B72"/>
<path d="M155.377 16.4875C169.017 16.4875 180.073 27.5269 180.073 41.1469C180.073 54.767 169.017 65.8064 155.377 65.8064C151.5 65.8064 147.911 64.9462 144.752 63.3692V80H130.681V41.1469C130.681 27.5269 141.737 16.4875 155.377 16.4875ZM155.377 51.7563C161.264 51.7563 166.002 47.0251 166.002 41.1469C166.002 35.2688 161.264 30.5376 155.377 30.5376C149.49 30.5376 144.752 35.2688 144.752 41.1469C144.752 47.0251 149.49 51.7563 155.377 51.7563Z" fill="#EE3B72"/>
<path d="M192.965 14.0502C189.088 14.0502 185.929 10.8961 185.929 7.02509C185.929 3.15412 189.088 0 192.965 0C196.841 0 200 3.15412 200 7.02509C200 10.8961 196.841 14.0502 192.965 14.0502ZM185.786 65.0896V16.4875H199.856V65.0896H185.786Z" fill="#EE3B72"/>
</svg>
