<?xml version="1.0" encoding="UTF-8"?>
<svg id="Layer_2" data-name="Layer 2" xmlns="http://www.w3.org/2000/svg" xmlns:xlink="http://www.w3.org/1999/xlink" viewBox="0 0 1039.36 1355">
  <defs>
    <style>
      .cls-1 {
        fill: #14237c;
      }

      .cls-2 {
        fill: #162784;
      }

      .cls-3 {
        stroke: #fff;
        stroke-miterlimit: 10;
      }

      .cls-3, .cls-4 {
        fill: #fff;
      }

      .cls-5 {
        fill: url(#linear-gradient);
      }

      .cls-6 {
        fill: #152683;
      }
    </style>
    <linearGradient id="linear-gradient" x1="206.37" y1="1825.41" x2="822.4" y2="1825.41" gradientTransform="translate(-26.49 -1307.1) scale(.96)" gradientUnits="userSpaceOnUse">
      <stop offset="0" stop-color="#05baf6"/>
      <stop offset="1" stop-color="#61ffa1"/>
    </linearGradient>
  </defs>
  <g id="Body">
    <path class="cls-1" d="M920.85,984.91s3.91,31.42,3.91,43.03c0,31.31-19.91,74.29-76.42,74.29s-55.32-49.53-55.32-49.53h-19.15c-5.79,0-16.85,0-16.85-24.17s19.91-30.98,19.91-30.98l-3.06-12.64s-7.83,2.47-10-2.46c-4.34-9.2-12.21-26.56-12.21-34.98s13.79-12.98,13.79-12.98c-3.79-28.04-41.37-90.38-41.37-90.38,0,0-12.41,83.7-17.25,125.66-1.17,10.16-1.9,17.87-1.9,21.36,0,7.95.65,18.31,1.91,29.7,1.57,14.24,4.09,30.1,7.5,44.85,6.13,26.55,37.32,182.85,37.32,182.85,12.25,0,62.81,35.41,62.81,82.38,0,9.03-6.81,24.09-21.45,24.09h-175.32c-39.15,0-46.3-21.36-54.47-52.68-8.17-31.32-19.4-71.41-34.98-127.83-15.57-56.43-30.44-58.47-60.89-58.47s-45.32,2.04-60.89,58.47c-15.58,56.42-26.81,96.51-34.98,127.83-8.17,31.32-15.32,52.68-54.47,52.68h-175.32c-14.64,0-21.45-15.06-21.45-24.09,0-46.97,50.56-82.38,62.81-82.38,0,0,31.19-156.3,37.32-182.85,3.41-14.75,5.93-30.61,7.5-44.85,1.26-11.39,1.91-21.75,1.91-29.7,0-3.49-.73-11.2-1.9-21.36-4.84-41.96-17.25-125.66-17.25-125.66,0,0-37.58,62.34-41.37,90.38,0,0,13.79,4.55,13.79,12.98s-7.87,25.78-12.21,34.98c-2.17,4.93-10,2.46-10,2.46l-3.06,12.64s19.91,6.81,19.91,30.98-11.06,24.17-16.85,24.17h-19.15s1.19,49.53-55.32,49.53-76.42-42.98-76.42-74.29c0-11.61,3.91-43.03,3.91-43.03,0,0-13.87-26.59-13.87-41.4s19.91-18.98,19.91-18.98c0,0,19.15-278.81,209.88-278.81h475.14c190.73,0,209.88,278.81,209.88,278.81,0,0,19.91,4.17,19.91,18.98s-13.87,41.4-13.87,41.4Z"/>
    <path class="cls-4" d="M465.15,933.7c-77.2-37.71-77.44-142.48-76.5-165.76.1-2.6,2.16-4.69,4.76-4.88,37.98-2.67,63.15-16.9,71.18-22.08,1.69-1.09,3.85-1.09,5.54,0,8.03,5.19,33.2,19.41,71.17,22.08,2.6.18,4.65,2.28,4.76,4.88.94,23.27.71,128.05-76.48,165.76-1.39.68-3.04.68-4.43,0Z"/>
    <g>
      <path class="cls-4" d="M467.35,910.37c-.63-.48-1.34-1-2.12-1.59-9.08-6.76-27.98-20.83-39.16-39.88-12.86-21.89-17.64-70.84-18.18-87.04,20.26-2.07,49.91-14.32,59.48-18.62,9.56,4.29,39.24,16.53,59.43,18.61v4.49s.09.36.09.36c.45,6.3-2.85,58-18.12,82.04-12.47,19.63-30.87,33.61-39.71,40.33-.62.47-1.19.9-1.71,1.3Z"/>
      <path class="cls-2" d="M467.35,769.26c4.92,2.13,11.99,4.98,18.67,7.44,13.88,5.1,25.71,8.44,35.31,9.98.02.24.04.44.07.63.29,7.95-3.13,56.2-17.28,78.48-11.24,17.71-27.75,30.78-36.8,37.69-9.17-6.84-26.35-20.06-36.51-37.36-10.58-18.01-15.99-58.78-17.21-79.47,9.55-1.55,21.29-4.88,35.04-9.93,6.7-2.46,13.8-5.32,18.73-7.46M467.35,757.21s0,0,0,0c0,0,0,0,0,0h0ZM467.35,757.22s0,0,0,0c-.11.08-39.17,17.93-62.28,19.36-1.55.1-2.76,1.36-2.75,2.91.09,13.25,4.62,67.73,18.99,92.2,13.87,23.62,38.68,39.69,44.51,44.47.44.36.99.55,1.53.55s1.08-.18,1.53-.55c5.84-4.77,29.37-20.6,44.52-44.47,16.99-26.75,19.62-83.18,18.88-86.05,0,0,0-3.55,0-6.18,0-1.54-1.21-2.79-2.75-2.89-23.13-1.47-62.07-19.27-62.18-19.35,0,0,0,0,0,0h0Z"/>
    </g>
    <path class="cls-2" d="M459.7,862.95c-1.93,0-3.87-.74-5.33-2.23l-22.21-22.47c-2.91-2.95-2.89-7.69.06-10.61,2.95-2.91,7.69-2.88,10.61.06l16.98,17.18,32.2-31.32c2.97-2.89,7.72-2.82,10.61.15,2.89,2.97,2.82,7.72-.15,10.61l-37.53,36.51c-1.46,1.42-3.34,2.12-5.23,2.12Z"/>
    <path class="cls-4" d="M602.42,658.87c-47.75,43.41-135.07,66.64-135.07,66.64,0,0-87.32-23.23-135.06-66.64h270.13Z"/>
    <path class="cls-3" d="M227.88,1020.83c1.26-11.39,1.91-21.75,1.91-29.7,0-3.49-.73-11.2-1.9-21.36h478.94c-1.17,10.16-1.9,17.87-1.9,21.36,0,7.95.65,18.31,1.91,29.7H227.88Z"/>
    <g>
      <rect class="cls-4" x="423.1" y="954.62" width="88.51" height="79.32" rx="12" ry="12"/>
      <path class="cls-6" d="M499.62,1037.94h-64.51c-8.82,0-16-7.18-16-16v-55.32c0-8.82,7.18-16,16-16h64.51c8.82,0,16,7.18,16,16v55.32c0,8.82-7.18,16-16,16ZM435.1,958.62c-4.41,0-8,3.59-8,8v55.32c0,4.41,3.59,8,8,8h64.51c4.41,0,8-3.59,8-8v-55.32c0-4.41-3.59-8-8-8h-64.51Z"/>
    </g>
  </g>
  <g id="Shield">
    <path class="cls-4" d="M845.36,1101.66c-3.5,0-7-.68-10.29-2.04-99.9-41.2-152.71-105.87-152.71-187.01v-109.78c0-13.61,10.13-25.09,23.63-26.79,35.65-4.49,105-31.92,128.71-42.11,3.4-1.46,7.03-2.19,10.66-2.19s7.26.73,10.66,2.2c23.71,10.19,93.06,37.62,128.71,42.11,13.5,1.7,23.63,13.18,23.63,26.79v109.78c0,81.14-52.8,145.81-152.71,187.01-3.3,1.36-6.8,2.04-10.29,2.04Z"/>
    <g>
      <path class="cls-1" d="M845.36,758.74s88.68,38.13,136,44.09v109.78c0,78.98-59.24,130.39-136,162.05-76.77-31.66-136-83.07-136-162.05v-109.78c47.32-5.96,136-44.09,136-44.09M845.35,704.74c-7.26,0-14.51,1.46-21.32,4.38h0c-31.63,13.59-92.57,36.49-121.43,40.13-27,3.4-47.25,26.36-47.25,53.58v109.78c0,26.17,4.88,51.31,14.51,74.72,8.93,21.71,22,42.06,38.85,60.49,28.16,30.79,67.2,56.61,116.05,76.76,6.59,2.72,13.59,4.08,20.59,4.08s14-1.36,20.59-4.08c48.84-20.14,87.88-45.97,116.04-76.76,16.85-18.43,29.93-38.78,38.85-60.49,9.63-23.42,14.51-48.56,14.51-74.73v-109.78c0-27.21-20.25-50.18-47.25-53.58-28.85-3.63-89.79-26.54-121.43-40.13-6.8-2.92-14.06-4.38-21.32-4.38h0Z"/>
      <path class="cls-4" d="M845.36,1132.66c-7.62,0-15.06-1.47-22.11-4.38-49.39-20.37-88.92-46.53-117.48-77.76-17.17-18.77-30.49-39.52-39.6-61.67-9.83-23.9-14.81-49.55-14.81-76.25v-109.78c0-29.16,21.82-53.9,50.75-57.55,28.45-3.58,88.92-26.33,120.35-39.83,7.27-3.12,14.97-4.71,22.89-4.71s15.63,1.58,22.9,4.71c31.43,13.5,91.9,36.25,120.35,39.83,28.93,3.64,50.75,28.38,50.75,57.55v109.78c0,26.69-4.98,52.34-14.81,76.25-9.11,22.15-22.43,42.9-39.6,61.67-28.56,31.22-68.08,57.38-117.47,77.75-7.05,2.91-14.49,4.38-22.12,4.38ZM845.35,708.74c-6.83,0-13.47,1.37-19.74,4.06-31.83,13.67-93.24,36.73-122.51,40.42-24.94,3.14-43.75,24.47-43.75,49.61v109.78c0,25.64,4.78,50.27,14.21,73.2,8.75,21.28,21.57,41.23,38.1,59.31,27.76,30.35,66.32,55.84,114.62,75.76,6.08,2.51,12.49,3.78,19.06,3.78s12.99-1.27,19.07-3.78c48.29-19.92,86.86-45.41,114.61-75.76,16.54-18.08,29.36-38.03,38.11-59.31,9.43-22.93,14.21-47.56,14.21-73.2v-109.78c0-25.14-18.81-46.47-43.75-49.61-29.26-3.69-90.67-26.75-122.51-40.42-6.27-2.69-12.92-4.06-19.74-4.06ZM845.36,1078.66c-.52,0-1.04-.1-1.52-.3-42.01-17.32-75.05-38.95-98.22-64.28-26.71-29.21-40.26-63.35-40.26-101.47v-109.78c0-2.02,1.5-3.72,3.5-3.97,46.21-5.82,134.04-43.42,134.92-43.8,1.01-.43,2.15-.43,3.16,0,.88.38,88.71,37.98,134.92,43.8,2,.25,3.5,1.95,3.5,3.97v109.78c0,38.12-13.55,72.26-40.26,101.47-23.17,25.33-56.21,46.95-98.21,64.28-.49.2-1.01.3-1.53.3ZM713.36,806.31v106.3c0,84.65,71.41,132.43,132,157.72,60.59-25.29,132-73.07,132-157.72v-106.3c-44.93-6.78-119.81-38.05-132-43.22-12.19,5.17-87.07,36.44-132,43.22Z"/>
    </g>
  </g>
  <g id="Head">
    <g>
      <path class="cls-1" d="M804.38,380.48c-28.87-95.83-117.49-162.8-218.13-162.8h-237.78c-100.24,0-189.66,66.96-218.13,162.8-33.28.8-59.75,27.67-59.75,60.55v8.82c0,33.28,26.46,60.15,59.75,60.55,28.47,96.23,117.49,162.8,218.13,162.8h237.78c100.65,0,189.66-66.56,218.13-162.8,32.88-.4,59.75-27.27,59.75-60.55v-8.82c0-32.88-26.87-59.75-59.75-60.55ZM586.25,622.27h-237.78c-97.44,0-176.83-79.39-176.83-176.83s79.39-176.83,176.83-176.83h237.78c97.44,0,176.83,78.99,176.83,176.83s-79.39,176.83-176.83,176.83Z"/>
      <rect class="cls-4" x="208.24" y="306.28" width="520.85" height="279.57" rx="139.79" ry="139.79"/>
      <path class="cls-5" d="M586.25,268.61h-237.78c-97.44,0-176.83,78.99-176.83,176.83s79.39,176.83,176.83,176.83h237.78c97.44,0,176.83-79.39,176.83-176.83s-78.99-176.83-176.83-176.83ZM586.25,573.75h-237.78c-70.57,0-128.31-57.74-128.31-128.31s57.74-128.31,128.31-128.31h237.78c70.57,0,128.31,57.74,128.31,128.31s-57.34,128.31-128.31,128.31Z"/>
    </g>
  </g>
  <g id="Eyes">
    <g>
      <path class="cls-1" d="M414.63,422.18v46.51c0,19.25-15.64,34.88-34.88,34.88s-34.88-15.64-34.88-34.88v-46.51c0-19.25,15.64-34.88,34.88-34.88s34.88,15.64,34.88,34.88Z"/>
      <path class="cls-1" d="M589.86,422.18v46.51c0,19.25-15.64,34.88-34.88,34.88s-34.88-15.64-34.88-34.88v-46.51c0-19.25,15.64-34.88,34.88-34.88s34.88,15.64,34.88,34.88Z"/>
    </g>
  </g>
  <g id="Cap">
    <path class="cls-1" d="M788.8,187.91c0,7.15-26.05,38.81-63.83,54.64,0,0-11.22,90.9-257.61,90.9s-257.61-90.9-257.61-90.9c-37.78-15.83-63.83-47.49-63.83-54.64s15.32-19.4,41.88-37.78c26.55-18.39,44.42-54.64,49.02-60.77,4.59-6.13,24-3.06,93.44-24,56.69-16.85,96-42.38,112.86-54.13C459.97-.51,467.36,0,467.36,0c0,0,7.39-.51,24.24,11.23,16.86,11.75,56.17,37.28,112.86,54.13,69.44,20.94,88.85,17.87,93.44,24,4.6,6.13,22.47,42.38,49.02,60.77,26.56,18.38,41.88,30.64,41.88,37.78Z"/>
    <path class="cls-4" d="M465.65,202.93c-59.63-29.13-59.82-110.06-59.09-128.04.08-2.01,1.67-3.63,3.67-3.77,29.34-2.06,48.78-13.05,54.99-17.06,1.31-.84,2.97-.84,4.28,0,6.2,4.01,25.64,15,54.98,17.06,2.01.14,3.59,1.76,3.67,3.77.73,17.98.55,98.91-59.08,128.04-1.07.52-2.35.52-3.42,0Z"/>
    <rect class="cls-4" x="236.3" y="222.15" width="462.13" height="34.72" rx="17.36" ry="17.36"/>
  </g>
</svg>